<?xml version="1.0" encoding="UTF-8" standalone="no"?>
<!-- Created with Inkscape (http://www.inkscape.org/) -->

<svg
   width="297mm"
   height="297mm"
   viewBox="0 0 297 297"
   version="1.1"
   id="svg5"
   inkscape:version="1.2 (dc2aedaf03, 2022-05-15)"
   sodipodi:docname="ground texture.svg"
   inkscape:export-filename="..\..\ground texture.png"
   inkscape:export-xdpi="200"
   inkscape:export-ydpi="200"
   xmlns:inkscape="http://www.inkscape.org/namespaces/inkscape"
   xmlns:sodipodi="http://sodipodi.sourceforge.net/DTD/sodipodi-0.dtd"
   xmlns="http://www.w3.org/2000/svg"
   xmlns:svg="http://www.w3.org/2000/svg">
  <sodipodi:namedview
     id="namedview7"
     pagecolor="#ffffff"
     bordercolor="#111111"
     borderopacity="1"
     inkscape:showpageshadow="0"
     inkscape:pageopacity="0"
     inkscape:pagecheckerboard="1"
     inkscape:deskcolor="#d1d1d1"
     inkscape:document-units="mm"
     showgrid="false"
     inkscape:zoom="0.70710678"
     inkscape:cx="633.56768"
     inkscape:cy="391.03005"
     inkscape:window-width="1920"
     inkscape:window-height="991"
     inkscape:window-x="-9"
     inkscape:window-y="-9"
     inkscape:window-maximized="1"
     inkscape:current-layer="layer1" />
  <defs
     id="defs2">
    <inkscape:path-effect
       effect="spiro"
       id="path-effect42195"
       is_visible="true"
       lpeversion="1" />
    <clipPath
       clipPathUnits="userSpaceOnUse"
       id="clipPath36793">
      <path
         id="path36795"
         style="fill:#ff0000;fill-opacity:1;fill-rule:nonzero;stroke:none;stroke-width:0.264583"
         d="M -2.1001302,-1.5776815 V 73.148507 h 2.33887532 c -0.82447261,-0.04024 -1.23045764,-1.101023 -0.24649658,-2.208135 0.80198607,-0.902327 1.54748696,-1.859831 2.47736816,-2.639116 0.8138918,-0.682043 1.7192725,-1.241345 2.637565,-1.767332 0.2940076,-0.173791 0.5804609,-0.360299 0.8815999,-0.521417 0.5251037,-0.28094 1.0688883,-0.526489 1.5957685,-0.804084 0.04022,-0.02119 2.3596309,-1.311593 2.4432619,-1.361673 1.070715,-0.641234 1.677185,-1.0677 2.689241,-1.749764 2.145945,-1.444313 4.547593,-2.436074 6.759794,-3.766696 1.366005,-0.821658 1.861294,-1.191164 3.08715,-2.044321 1.720935,-1.238298 3.444984,-2.487584 5.308719,-3.507277 0.832234,-0.455343 1.690527,-0.861277 2.535246,-1.292945 1.106218,-0.421275 2.076463,-1.103209 2.954859,-1.886707 0.200062,-0.178445 0.374967,-0.385331 0.582911,-0.554487 0.232132,-0.188883 0.48908,-0.344511 0.733806,-0.516766 0.158504,-0.08952 0.316918,-0.179199 0.475422,-0.268716 0.261284,-0.147568 0.499975,-0.220411 0.724503,-0.262001 0.138073,-0.08667 0.299429,-0.131971 0.471808,-0.128156 0.432461,0.0096 0.931632,0.32434 1.292942,1.046964 0.927579,1.855126 -0.04906,-0.134088 0.839742,1.791621 0.329404,0.713706 0.219443,0.310888 0.492993,1.164786 0.03485,0.108775 0.331055,1.207529 0.363286,1.326536 0.425157,1.409986 0.724173,2.864559 1.283642,4.231264 0.222655,1.00951 0.703673,1.927506 1.007174,2.909901 0.103571,0.5338 0.210611,1.069091 0.457337,1.558044 0.1992,0.394769 0.229635,0.406252 0.316778,0.582393 1.741657,-2.376519 3.586959,-4.707718 5.835301,-6.620267 1.078669,-1.368639 2.216182,-2.688989 3.328995,-4.029728 1.472004,-1.773407 0.604406,-0.834107 1.838648,-2.109433 0.167063,-0.201867 0.34163,-0.397849 0.501261,-0.605647 0.589037,-0.766766 1.139097,-1.562386 1.773018,-2.295467 0.714261,-0.825942 1.019321,-1.108422 1.761133,-1.853118 0.301236,-0.288107 0.602218,-0.576794 0.903822,-0.864545 0.272814,-0.260289 0.5388,-0.528132 0.819589,-0.779798 1.83792,-1.647285 0.07618,-0.02241 1.397847,-1.149284 0.3649,-0.311121 0.604173,-0.571693 0.938961,-0.914672 0.615762,-0.657887 1.240409,-1.307246 1.875337,-1.946651 0.195393,-0.196768 0.411859,-0.374219 0.589627,-0.587044 0.130265,-0.155954 0.215342,-0.344313 0.329179,-0.512631 0.162832,-0.240757 0.333917,-0.47617 0.500745,-0.714168 0.283871,-0.414243 0.504145,-0.890162 0.88315,-1.233001 0.0386,-0.03491 0.07721,-0.08295 0.11679,-0.128672 0.01222,-0.0168 0.02471,-0.03388 0.03152,-0.04599 l 0.507463,-0.485243 c -0.110141,0.0452 -0.07443,0.04277 0.0341,-0.101285 0.405212,-0.537673 0.855924,-0.772721 1.242819,-0.790649 0.680297,-0.03153 1.149805,0.612121 0.845426,1.461926 0.06905,0.100616 0.135358,0.211804 0.197406,0.335897 0.181358,0.362717 0.355457,0.729075 0.543634,1.088305 0.439925,0.839822 0.629544,1.227116 1.175123,1.93735 0.448098,0.58333 0.649422,0.652159 1.008724,1.309482 0.138237,0.252862 0.223567,0.531214 0.33538,0.796848 0.572477,1.332354 1.326483,2.576571 1.932699,3.891753 0.08362,0.231723 0.171681,0.462212 0.25063,0.695566 0.08569,0.253254 0.146759,0.514813 0.242879,0.764294 0.218858,0.568029 0.321088,0.641186 0.590145,1.158068 0.852165,1.637078 0.01757,0.127257 0.702284,1.348756 0.310446,0.558893 0.39153,1.213644 0.671793,1.783871 0.01733,0.03527 0.06388,0.04887 0.08475,0.08216 0.28675,0.457546 0.262995,0.479263 0.451651,0.994254 0.336571,0.737888 0.757018,1.432168 1.082622,2.176095 0.303414,0.596426 0.365996,1.27092 0.636654,1.878438 0.116716,0.261982 0.312375,0.54297 0.468704,0.782899 0.01331,0.02588 0.395875,0.789972 0.494546,0.923973 0.04804,0.06525 0.12328,0.105958 0.17725,0.166399 0.116898,0.130921 0.228507,0.266682 0.334346,0.406694 0.101026,0.133646 0.93935,1.330468 0.966348,1.368909 0.08592,0.146889 0.171818,0.29373 0.25735,0.440801 0.04394,-0.205568 0.07202,-0.252611 0.319876,-1.127064 0.185531,-0.65455 0.13191,-0.614368 0.451651,-1.291394 0.171183,-0.362434 0.377939,-0.707295 0.552424,-1.068152 0.32471,-0.860462 0.72449,-1.694635 1.113626,-2.528528 0.07286,-0.156131 0.123978,-0.325144 0.223758,-0.465606 0.101608,-0.143044 0.227714,-0.266477 0.351401,-0.391705 -0.01381,0.0099 -0.02843,0.01857 -0.04496,0.02376 -0.0351,0.01106 5.29e-4,-0.07635 0.01757,-0.109038 0.117896,-0.227973 0.256686,-0.444783 0.383956,-0.66766 0.04539,-0.07948 0.341823,-0.593701 0.365352,-0.694531 0.02241,-0.09609 -0.0123,-0.19712 -0.0186,-0.29559 0.138099,-0.624274 0.0612,-1.257554 0.310057,-1.858801 0.06378,-0.154099 0.171591,-0.285869 0.25735,-0.428913 0.17309,-0.288724 0.314222,-0.406271 0.432533,-0.406178 0.167029,1.4e-4 0.286456,0.238511 0.386538,0.553971 0.06028,-0.01341 0.122983,-0.02074 0.187587,-0.02066 0.396835,2.65e-4 0.863607,0.26312 1.257286,0.890384 0.845757,1.347539 0.319971,0.466347 0.997355,1.694471 0.06621,0.120028 0.15181,0.230082 0.204639,0.356568 0.138295,0.331079 0.205486,0.689946 0.351917,1.017509 0.07212,0.161319 0.159195,0.315571 0.238745,0.473355 0.585885,0.916612 0.833006,1.979044 1.214913,2.982764 0.112305,0.295156 0.512866,1.219502 0.607716,1.440739 0.512176,0.786106 0.793883,1.672479 1.146183,2.529562 0.05026,0.104402 0.09278,0.212913 0.150895,0.313158 0.141084,0.243401 0.326139,0.471686 0.452686,0.723471 0.175078,0.348343 0.155025,0.327099 0.150379,0.332277 0.0065,-0.0076 0.01252,-0.01566 0.01913,-0.02326 0.303072,-0.348279 0.646607,-0.659019 0.971518,-0.987021 0.397098,-0.40088 0.777852,-0.819959 1.197343,-1.197342 0.232429,-0.209103 0.858306,-0.69024 1.134814,-0.905373 0.19604,-0.13779 0.399746,-0.265287 0.588076,-0.413411 1.37582,-1.081964 -0.0099,-0.05924 1.179774,-1.066602 0.303795,-0.257241 0.628944,-0.48772 0.938962,-0.737423 1.809536,-1.457486 0.187566,-0.204155 1.811766,-1.441773 0.7521,-0.62957 1.42888,-1.344977 2.18023,-1.975072 0.39788,-0.333668 0.82617,-0.629404 1.2392,-0.944128 0.84195,-0.641573 1.66663,-1.301695 2.52853,-1.916163 1.75164,-1.234348 3.34773,-2.671342 4.97282,-4.064868 0.73979,-0.580004 1.53326,-1.085519 2.32957,-1.582849 0.21482,-0.134149 0.44127,-0.25052 0.64906,-0.395324 0.38968,-0.271568 0.75061,-0.583002 1.13689,-0.85938 0.74043,-0.614093 1.59157,-1.102439 2.50011,-1.41955 0.72953,-0.254524 0.41602,-0.01265 0.73742,-0.299726 0.0747,-0.04893 0.15368,-0.0921 0.22428,-0.146759 0.0317,-0.02461 0.0247,-0.08095 0.0553,-0.106971 0.37836,-0.321596 0.35664,-0.296256 0.67903,-0.484724 0.40685,-0.237853 0.77732,-0.333426 1.0883,-0.326597 0.39225,0.0086 0.68235,0.185703 0.83923,0.441833 1.12724,0.381582 2.28637,0.710144 3.32279,1.311032 0.52211,0.302707 0.9114,0.601533 1.3994,0.953431 0.17169,0.115663 0.33614,0.243403 0.51522,0.347266 0.25194,0.146129 0.51703,0.267599 0.77565,0.401526 0.3601,0.2091 0.72158,0.416333 1.08055,0.627351 1.12717,0.662599 1.71566,1.061143 2.92282,1.617472 0.40866,0.188338 0.83817,0.327202 1.25729,0.490926 2.06338,0.696225 3.78443,2.07096 5.73196,2.999817 0.3068,0.146325 0.63023,0.254849 0.94206,0.390157 0.33922,0.14723 0.67381,0.304925 1.01079,0.457338 1.922,0.967354 3.87992,1.860465 5.78104,2.869591 0.53555,0.284263 1.05717,0.592979 1.58698,0.887802 0.0404,0.02249 0.0881,0.03959 0.13746,0.05529 0.12212,-0.369099 0.20304,-0.47182 0.17156,0.05271 0.003,0.0011 0.006,0.0026 0.009,0.0036 0.0123,-0.0099 0.0235,-0.02008 0.0362,-0.02997 0.23476,-0.183381 0.50332,-0.330021 0.70435,-0.549836 0.21862,-0.238996 0.38231,-0.52501 0.53847,-0.808736 0.74454,-1.352659 0.78813,-2.837127 0.9369,-4.340821 0.0483,-0.488024 0.0897,-0.977201 0.13436,-1.465543 0.18043,-2.234663 0.98282,-4.305191 2.00917,-6.281271 0.27115,-0.522076 1.82359,-3.085122 2.1239,-3.584277 0.7888,-1.389938 0.96384,-1.572807 1.52291,-3.021004 0.2746,-0.711335 0.38866,-1.412499 0.62683,-2.137339 0.4529,-1.378259 0.46996,-1.299143 1.10174,-2.527493 1.06838,-1.726388 1.57025,-3.810696 2.66082,-5.470985 0.23608,0.03395 0.4357,0.05265 0.61651,0.06511 0.16002,-0.148596 0.37997,-0.234512 0.63303,-0.234095 0.39334,6.62e-4 0.86502,0.208305 1.31568,0.708484 2.19851,2.440032 -0.45929,-0.516663 2.21021,2.478401 0.32262,0.361974 0.66221,0.709036 0.97254,1.081588 0.29623,0.355584 0.55165,0.744487 0.84646,1.101225 1.00312,1.213845 2.06846,2.375953 3.10007,3.565673 2.68555,3.530058 4.9824,7.331771 7.52203,10.964707 0.47366,0.677539 0.97121,1.338069 1.45676,2.007113 2.05964,2.831034 4.10507,5.711679 5.82651,8.770009 0.62847,-0.944846 1.46644,-1.721671 2.28668,-2.506827 0.22601,-0.216334 0.43243,-0.452003 0.66198,-0.664556 0.27192,-0.251775 1.189,-1.01939 1.51257,-1.291913 0.92656,-1.123633 -0.15747,0.157914 1.17306,-1.269691 0.20861,-0.223827 0.3802,-0.483235 0.60203,-0.694012 1.12872,-1.072732 2.40453,-1.999779 3.65094,-2.927988 2.74788,-1.739604 -1.0432,0.632426 1.98592,-1.163235 0.81543,-0.483386 0.73719,-0.576001 1.63762,-0.988055 0.14342,-0.06561 1.22292,-0.415594 1.42421,-0.481624 1.20592,-0.411398 2.16939,-1.276075 3.25303,-1.908929 0.2232,-0.130344 0.46336,-0.229026 0.69505,-0.343646 0.37491,-0.226692 1.10249,-0.6541 1.4056,-0.899686 0.17222,-0.13956 0.28852,-0.337947 0.45372,-0.48576 0.68435,-0.612288 1.43955,-1.165494 2.2102,-1.661398 0.65188,-0.569111 1.37945,-1.033118 2.08462,-1.529104 0.19608,-0.137935 0.37098,-0.304591 0.57309,-0.433567 0.70639,-0.450747 0.92551,-0.512874 1.66243,-0.831472 0.58846,-0.37302 0.93517,-0.366194 1.6428,-0.403592 0.0879,-0.0047 0.1674,-0.0059 0.23875,-0.0036 0.45846,0.01447 0.57372,0.170947 0.51108,0.398425 0.25255,0.04037 0.52678,0.121079 0.82061,0.251664 0.43275,0.192273 0.85933,0.398738 1.29812,0.57671 1.52913,0.620212 1.13924,0.29415 2.69131,1.166336 0.89283,0.501745 1.70411,1.140486 2.51819,1.757 0.88359,0.609068 1.73214,1.268627 2.62568,1.863452 0.25635,0.170636 0.53507,0.306176 0.78445,0.486791 0.0613,0.04438 1.58767,1.27594 1.79782,1.44539 0.33817,0.269637 0.67627,0.539102 1.01441,0.808736 0.34308,0.254159 0.6926,0.499734 1.02888,0.762746 0.9505,0.74336 0.96407,0.848961 1.77146,1.359607 0.0401,-0.0353 0.079,-0.07086 0.12248,-0.105937 1.15315,-0.931368 1.8459,-2.04402 2.31148,-3.417879 0.0931,-0.274701 0.14256,-0.563968 0.25219,-0.832509 0.13906,-0.34072 0.32679,-0.659445 0.4904,-0.989087 0.45584,-0.516281 0.66675,-1.17639 1.05007,-1.73736 0.31504,-0.460991 0.65785,-0.882835 0.96583,-1.351857 0.84206,-0.77866 1.48223,-1.782442 2.34973,-2.535245 0.4395,-0.381368 0.72402,-0.538546 1.18598,-0.825788 0.86343,-0.717738 1.50052,-1.67349 2.20193,-2.541964 0.92024,-1.443191 2.17482,-2.706293 3.59358,-3.659208 0.13602,-0.08723 0.28974,-0.152736 0.40876,-0.262001 0.0238,-0.02188 -0.0389,-0.06945 -0.0191,-0.09508 0.14387,-0.186616 0.33356,-0.333547 0.48731,-0.512114 0.10009,-0.116247 0.16856,-0.258045 0.27285,-0.37052 2.18377,-2.354746 -0.0942,0.236768 1.09089,-1.121895 0.55192,-0.555337 1.27442,-0.756948 1.94045,-1.100191 -0.0437,0.01775 -0.0943,0.03277 -0.10283,0.0072 -0.0239,-0.07165 0.0644,-0.137054 0.10542,-0.200504 0.0974,-0.15077 0.20603,-0.293815 0.30902,-0.4408 0.41161,-0.120755 0.28807,-0.56722 0.51935,-0.798918 0.0837,-0.08382 0.17771,-0.156334 0.26975,-0.230993 0.0954,-0.189548 0.24268,-0.337576 0.42478,-0.43925 0.19412,-0.146226 0.38829,-0.292501 0.5824,-0.438733 0.2813,-0.211915 0.48997,-0.296407 0.64337,-0.286804 0.29934,0.01874 0.38396,0.399944 0.3855,0.890385 0.28512,0.176581 0.57234,0.428247 0.84388,0.774113 1.11492,1.420057 2.20114,2.862512 3.29902,4.295861 0.84774,1.106766 0.39353,0.629061 1.20045,1.37976 0.32756,0.383143 0.6698,0.754232 0.98288,1.149284 1.62041,2.044713 0.16556,0.451461 1.96732,2.511994 0.83063,0.94991 1.71155,1.862492 2.56057,2.796728 1.45829,1.61163 2.46712,3.561405 3.82252,5.250841 0.28435,0.354439 0.59807,0.684149 0.8971,1.026295 0.29133,0.387644 0.56552,0.788956 0.87384,1.163235 0.48522,0.588997 1.06727,1.092163 1.56787,1.668116 0.76869,0.884373 0.8405,1.110724 1.5844,2.07119 0.26927,0.347697 0.55719,0.681186 0.83561,1.021644 0.49326,0.606698 0.99528,1.206108 1.4795,1.820045 0.60049,0.761381 1.15993,1.554837 1.77405,2.305285 1.32951,1.624608 2.85655,3.060052 4.2571,4.616773 1.21991,1.386086 2.07729,3.052982 3.30469,4.42867 0.41741,0.467855 0.87517,0.89884 1.29813,1.361673 0.15756,0.173244 0.31395,0.347758 0.47284,0.519867 0.13414,-0.478484 0.26789,-0.95693 0.39171,-1.438156 0.23294,-0.90551 0.13833,-0.906188 0.54983,-1.790589 0.2049,-0.440367 0.478,-0.845873 0.70382,-1.27589 0.48919,-1.662451 1.48154,-3.067772 2.40244,-4.508254 0.0417,-0.526894 -0.0148,-0.08306 0.2956,-0.990637 0.20608,-0.602607 0.0621,-0.349271 0.34157,-1.007689 0.19627,-0.462331 0.37545,-0.770909 0.61288,-1.212329 0.25615,-0.351713 0.48544,-0.711372 0.70282,-1.086239 0.0288,-0.04966 -0.11081,0.19571 -0.10181,0.139009 0.031,-0.195606 0.39626,-1.015513 0.42735,-1.088821 1.24037,-2.566178 -0.58547,1.141079 0.77465,-1.387512 0.0334,-0.06205 0.19399,-0.626086 0.19997,-0.641305 0.084,-0.202824 0.18375,-0.398931 0.27543,-0.598413 0.26874,-0.524016 0.83865,-0.757047 1.21182,-1.175123 0.0496,-0.05547 0.0604,-0.136052 0.0992,-0.19947 0.55068,-0.899443 -0.003,0.106717 0.47283,-0.785484 0.33531,-0.609613 0.49795,-1.289619 0.71832,-1.94355 0.0959,-0.284673 0.22344,-0.558951 0.30335,-0.848527 0.0505,-0.183033 0.0512,-0.376668 0.0863,-0.563274 0.0447,-0.237564 0.10197,-0.472191 0.15298,-0.708483 0.0918,-0.255725 0.15227,-0.5252 0.27543,-0.767394 0.1324,-0.260374 0.33544,-0.478901 0.48525,-0.729671 0.0903,-0.151088 0.0584,-0.348467 0.11472,-0.515215 0.0836,-0.24756 0.46752,-1.166834 0.5679,-1.41025 0.0671,-0.179573 0.14375,-0.384445 0.2186,-0.585494 V -1.5776815 Z M 0.23874512,73.148507 H 298.83137 V 43.925485 c -0.12168,0.321651 -0.25911,0.637003 -0.42892,0.938961 -0.43201,0.770395 -0.88193,1.503476 -1.56786,2.076876 -0.248,0.207322 -0.22508,0.284043 -0.23408,0.116271 0.0426,-0.353531 0.0132,-0.04877 -0.12144,0.348816 -0.12256,0.361506 -0.27771,0.712372 -0.45268,1.051616 -0.0659,0.127717 -0.17613,0.228457 -0.24704,0.353467 -0.10872,0.19177 -0.19309,0.396193 -0.28988,0.594278 -0.34115,0.776796 -0.56909,1.611281 -1.13948,2.26446 -0.0994,0.182854 -0.35647,0.643237 -0.45217,0.859896 -0.36126,0.817555 -0.52039,1.720467 -0.90432,2.531113 -0.5515,0.860843 -1.1988,1.700461 -1.62523,2.63498 -0.11311,0.247846 -0.19095,0.51035 -0.29094,0.763778 -0.1198,0.303678 -0.24524,0.60493 -0.36793,0.907439 -0.20362,0.382111 -0.66908,1.081164 -0.79634,1.503783 -0.0966,0.320911 -0.14399,0.655193 -0.22738,0.979787 -0.007,0.02835 -0.83315,3.054101 -0.84596,3.101101 -0.0375,0.137555 -0.0812,0.264145 -0.12813,0.384472 0.2382,0.505928 -0.0369,0.731665 -0.49506,0.829926 -0.64977,0.714243 -1.52469,0.657545 -1.96837,-0.0067 -0.16648,-0.01558 -0.3742,-0.03631 -0.48781,-0.04134 0.10625,0.1147 0.21788,0.220414 0.41288,0.41651 -0.0259,-0.01164 -0.052,-0.02297 -0.078,-0.03462 -0.74131,-0.333184 -0.70556,-0.39829 -0.33485,-0.381889 -0.10192,-0.11 -0.19913,-0.22815 -0.36174,-0.444936 -0.10639,-0.141846 -0.20598,-0.288634 -0.29869,-0.439767 -0.0305,-0.04966 -0.0324,-0.116049 -0.0698,-0.160713 -0.33216,-0.396338 -0.74483,-0.720614 -1.05783,-1.134814 -0.45945,-0.504936 -0.95671,-0.974799 -1.40661,-1.488281 -1.18525,-1.352778 -2.05597,-2.945032 -3.21376,-4.321699 -0.88934,-0.999842 -1.85396,-1.917777 -2.75127,-2.913002 -2.25935,-2.505821 -1.14109,-1.289251 -3.36722,-4.111892 -0.48337,-0.612907 -0.98502,-1.211281 -1.47743,-1.816944 -0.30784,-0.378531 -0.62463,-0.74966 -0.92348,-1.135332 -0.46868,-0.604817 -0.86688,-1.234268 -1.3689,-1.811258 -0.37036,-0.425633 -1.39602,-1.457825 -1.76887,-1.908927 -0.26482,-0.320413 -0.49578,-0.667266 -0.74364,-1.000974 -0.34636,-0.401254 -0.70855,-0.789755 -1.0392,-1.204061 -1.2909,-1.617607 -2.26884,-3.466629 -3.63751,-5.025017 -0.87823,-0.966353 -1.79053,-1.910905 -2.64687,-2.895946 -1.87236,-2.153695 -0.49671,-0.626004 -1.94613,-2.486671 -0.25384,-0.325863 -0.53095,-0.632759 -0.79633,-0.949296 -0.26626,-0.266417 -0.55056,-0.515813 -0.79841,-0.799433 -0.24253,-0.277532 -0.44509,-0.587965 -0.66921,-0.880568 -0.88808,-1.159433 -1.77336,-2.320769 -2.6603,-3.480923 -0.19962,0.283459 -0.41807,0.588339 -0.51056,0.681095 -0.44919,0.450445 -1.06565,0.752837 -1.67225,0.92139 -0.16757,0.185454 -0.33524,0.371102 -0.50281,0.556556 -0.15177,0.135091 -0.3177,0.255609 -0.45527,0.405143 -0.60278,0.655228 -1.08164,1.480344 -1.88981,1.915129 -0.52908,0.276468 -0.2102,0.08023 -0.93431,0.75706 -0.74415,0.695576 -1.46421,1.385985 -1.96577,2.287198 -0.90637,1.111626 -1.72559,2.343878 -2.92179,3.172934 -0.20828,0.126201 -0.44172,0.21735 -0.62631,0.376203 -0.74103,0.637725 -1.26342,1.507757 -2.02365,2.12752 -0.2404,0.363122 -0.48922,0.762635 -0.76378,1.107424 -0.038,0.04763 -0.0952,0.07855 -0.12971,0.128675 -0.16978,0.246383 -0.57486,1.022445 -0.67386,1.183907 -0.0908,0.148003 -0.2022,0.28212 -0.30334,0.42323 -0.0973,0.168434 -0.21976,0.324774 -0.29197,0.505397 -0.83085,2.079596 0.23926,-0.05828 -0.72761,2.067573 -0.54401,1.196078 -1.31334,2.227477 -2.27221,3.115056 0.75971,1.243849 -0.4549,2.573861 -2.41432,1.564246 -0.40781,-0.210143 -1.08904,-0.555797 -1.4118,-0.758095 -1.25908,-0.789167 -0.93852,-0.676902 -2.04742,-1.543574 -0.36243,-0.283244 -0.7377,-0.548386 -1.10691,-0.82269 -0.34227,-0.272907 -0.68458,-0.546163 -1.02681,-0.81907 -0.50897,-0.410478 -0.98579,-0.862513 -1.51619,-1.244886 -0.29141,-0.210082 -0.61413,-0.372912 -0.91312,-0.572059 -0.92261,-0.61451 -1.79995,-1.295124 -2.71146,-1.925462 -0.67175,-0.509075 -1.34085,-1.057154 -2.07171,-1.480013 -1.25336,-0.725162 -1.14494,-0.531948 -2.574,-1.111044 -0.42713,-0.17308 -0.84236,-0.373994 -1.26349,-0.561205 -0.26557,-0.11806 -0.49171,-0.251696 -0.6811,-0.395327 -0.096,0.0435 -0.19944,0.09249 -0.30127,0.157099 -0.31948,0.131019 -0.77133,0.299635 -1.06402,0.488341 -0.248,0.15988 -0.46858,0.359072 -0.71003,0.528651 -0.7254,0.509447 -1.46081,1.003496 -2.14664,1.568894 -0.75909,0.452308 -0.18591,0.08344 -1.19218,0.875917 -0.17336,0.13653 -0.36241,0.253288 -0.52865,0.398425 -0.30386,0.265322 -0.56429,0.579787 -0.87953,0.831475 -0.43949,0.350877 -1.26736,0.812069 -1.76785,1.103807 -0.59702,0.249385 -0.2374,0.07498 -1.0635,0.626835 -1.01216,0.676142 -2.05575,1.342273 -3.20859,1.754415 -0.23491,0.07687 -0.46692,0.162385 -0.70435,0.230994 -0.0768,0.02217 -0.16327,0.0081 -0.23616,0.04083 -0.66645,0.299506 -0.99628,0.606621 -1.65158,0.995805 -0.29509,0.175244 -0.60938,0.316778 -0.90692,0.487825 -0.25033,0.143915 -0.491,0.304636 -0.73639,0.456819 -1.13792,0.845749 -1.0565,0.768252 -2.17868,1.672249 -0.3449,0.277847 -0.7063,0.537184 -1.02681,0.842843 -0.26821,0.255792 -0.48004,0.564497 -0.73277,0.83561 -0.19455,0.208696 -0.40565,0.402135 -0.60824,0.603062 -0.24828,0.27713 -0.49689,0.554345 -0.74517,0.831475 -0.0757,0.06369 -1.26215,1.061095 -1.33325,1.127061 -0.26243,0.24348 -0.50025,0.512448 -0.76016,0.758611 -0.86967,0.823679 -1.75813,1.59739 -2.26343,2.724383 -0.38597,0.860782 -0.91805,1.249989 -1.40818,1.294492 -0.48106,0.159631 -1.13639,-0.101457 -1.5844,-0.990637 -0.44665,-0.88651 -0.44408,-0.899147 -1.23042,-2.204516 -1.6393,-2.721303 -3.37568,-5.387703 -5.30303,-7.915278 -0.49944,-0.688893 -1.01058,-1.369152 -1.4981,-2.066541 -2.48979,-3.56162 -4.74871,-7.284376 -7.36441,-10.757482 -1.06125,-1.22395 -2.15281,-2.421964 -3.1843,-3.671094 -0.25733,-0.311624 -0.47453,-0.655431 -0.73329,-0.965832 -0.31446,-0.377212 -0.65871,-0.728414 -0.98547,-1.095026 -2.49217,-2.796088 -1.11429,-1.262425 -1.942,-2.182294 -0.63931,1.403255 -1.09932,2.891441 -1.93477,4.200776 -0.16015,0.300459 -0.34294,0.590082 -0.48111,0.901237 -0.49165,1.107102 -0.44847,1.275959 -0.79478,2.426727 -0.35088,1.165947 -0.54138,1.7053 -1.12861,2.867525 -0.27746,0.549169 -0.60717,1.069546 -0.91106,1.604552 -1.28406,2.133801 -2.72084,4.261342 -3.42718,6.678663 -0.22927,0.784712 -0.29796,1.469782 -0.40462,2.263944 -0.26721,2.909711 -0.2508,5.946204 -2.46962,8.157126 -0.30289,0.301834 -0.69206,0.503629 -1.03766,0.755507 -0.69288,0.504997 -1.25522,0.508881 -1.57665,0.248047 -0.0583,-0.01236 -0.11936,-0.01712 -0.1757,-0.03617 -1.3e-4,7.93e-4 -2.4e-4,0.0013 -5.3e-4,0.0021 -0.14763,0.651359 -0.10935,0.458245 -0.003,-0.0031 -0.0115,-0.0039 -0.0232,-0.0075 -0.0346,-0.01188 -0.21287,-0.08101 -0.40049,-0.217281 -0.59945,-0.328147 -0.50481,-0.281281 -1.00168,-0.576961 -1.51205,-0.848008 -1.87132,-0.993836 -3.79886,-1.872321 -5.69009,-2.826184 -0.68741,-0.311568 -1.39438,-0.580398 -2.07481,-0.906923 -1.87403,-0.899329 -3.53159,-2.215446 -5.51284,-2.898531 -0.48654,-0.194456 -0.98403,-0.362961 -1.45935,-0.583428 -1.24883,-0.579215 -1.86191,-0.988565 -3.0148,-1.667597 -0.33272,-0.195961 -0.66685,-0.389001 -1.00046,-0.583428 -0.32623,-0.174384 -0.65972,-0.335737 -0.97875,-0.522964 -0.19889,-0.116716 -0.38207,-0.258395 -0.57309,-0.387575 -0.32949,-0.239202 -0.77444,-0.575062 -1.13068,-0.787549 -0.92208,-0.55001 -1.97537,-0.814408 -2.97863,-1.169953 -0.14593,-0.05172 -0.27706,-0.111069 -0.39636,-0.175183 -0.20959,0.232802 -0.4232,0.457332 -0.7152,0.598929 -0.22263,0.11783 -0.43624,0.254048 -0.66766,0.353468 -0.80323,0.345091 -0.0309,-0.143711 -0.88728,0.270266 -0.5417,0.261867 -1.06942,0.61195 -1.53066,0.996323 -0.43033,0.305957 -0.83677,0.644428 -1.26969,0.946711 -0.19189,0.133993 -0.40143,0.240866 -0.59996,0.364837 -0.71281,0.445135 -1.42495,0.894813 -2.0929,1.406115 -1.67525,1.436312 -3.3224,2.915555 -5.12888,4.186825 -0.8459,0.598784 -1.6489,1.251458 -2.4753,1.876888 -0.36145,0.273542 -0.73959,0.526084 -1.08676,0.81752 -0.80036,0.671936 -1.51827,1.438537 -2.32906,2.099098 -1.64374,1.248101 0.21923,-0.182115 -1.79265,1.427819 -0.25428,0.203486 -0.526313,0.384604 -0.774635,0.595312 -0.639538,0.542669 -1.195245,1.197595 -1.932181,1.621608 -0.0052,0.004 -0.913603,0.709779 -0.932243,0.726569 -0.419315,0.377574 -0.796179,0.800024 -1.197343,1.196827 -0.255297,0.252527 -0.532114,0.485011 -0.769461,0.754476 -0.226452,0.257093 -0.412049,0.547393 -0.618051,0.821139 -0.03517,0.04674 -0.07112,0.09033 -0.106971,0.132808 0.436152,1.647317 -1.325039,2.281105 -2.134754,0.465606 -0.203298,-0.455832 -0.461092,-0.88265 -0.642853,-1.347722 -0.09165,-0.180043 -0.190751,-0.356362 -0.274918,-0.54002 -0.0105,-0.02294 0.0647,0.07618 0.05219,0.05426 -0.274524,-0.480216 -0.6135,-0.925097 -0.81597,-1.444355 -0.321778,-0.844214 -0.635132,-1.689322 -1.119827,-2.465485 -0.164074,-0.382974 -0.503037,-1.160759 -0.660427,-1.575613 -0.351771,-0.927258 -0.566936,-1.907796 -1.117761,-2.750219 -0.213037,-0.446037 -0.359778,-0.690044 -0.487826,-1.136367 -0.02138,-0.07452 -0.0065,-0.158022 -0.03669,-0.229441 -0.06041,-0.143132 -0.156289,-0.26892 -0.230994,-0.405143 -0.01011,-0.01844 -0.01426,-0.02657 -0.02376,-0.04393 -0.109151,0.228182 -0.338703,0.65259 -0.394808,0.73949 -0.04623,0.0716 -0.12278,0.121851 -0.161229,0.197921 -0.07617,0.150688 -0.09611,0.326882 -0.178285,0.47439 -0.09387,0.168511 -0.230295,0.30965 -0.345199,0.464571 0.03234,-0.07016 0.131797,-0.279373 0.09715,-0.210322 -0.491326,0.979437 -0.93136,1.990161 -1.342038,3.004468 -0.09516,0.194112 -0.18505,0.390329 -0.285253,0.581874 -0.179718,0.343586 -0.288724,0.445453 -0.418579,0.819074 -0.07024,0.202102 -0.109733,0.413488 -0.168984,0.619082 -0.379915,1.318202 -0.154662,0.364038 -0.456303,1.859836 -0.155689,0.772041 -0.541345,1.220539 -0.947745,1.376143 -0.0748,0.381402 -0.284049,0.567766 -0.808736,0.198437 -0.09368,-0.06594 -0.21209,-0.105965 -0.28112,-0.197405 -0.0088,-0.01167 -5.29e-4,-0.0122 0.01447,-0.0083 -0.215114,-0.09767 -0.348591,-0.139012 -0.545187,-0.31936 -0.08611,-0.07901 -0.242075,-0.146799 -0.328144,-0.230479 -0.03287,-0.01791 -0.05152,-0.03565 -0.04289,-0.05323 -0.01289,-0.02304 -0.01998,-0.0476 -0.0181,-0.0739 -0.09446,-0.04224 -0.188095,-0.08594 -0.276987,-0.138494 -0.236789,-0.139933 -0.639469,-0.882298 -0.755507,-1.090372 -0.290092,-0.413064 -0.566251,-0.836115 -0.868683,-1.240234 -0.414594,-0.554 -0.925838,-1.032579 -1.157033,-1.705837 -0.292931,-0.465956 -0.470615,-0.710896 -0.690399,-1.240753 -0.237683,-0.573009 -0.31075,-1.181571 -0.583427,-1.740461 -0.324641,-0.806538 -0.830519,-1.530924 -1.145667,-2.34301 -0.08268,-0.373475 -0.334796,-0.63859 -0.501777,-0.979268 -0.234696,-0.478861 -0.327189,-1.017611 -0.541052,-1.504818 -0.734314,-1.322922 -1.45329,-2.662944 -1.866553,-4.125846 -0.335981,-0.7541 0.06389,0.120108 -0.552421,-1.079005 -0.498279,-0.9695 -0.98814,-1.942994 -1.43247,-2.938838 -0.03328,-0.115221 -0.04489,-0.239073 -0.09973,-0.345716 -0.249068,-0.484113 -0.68694,-0.879305 -1.004591,-1.302247 -0.625708,-0.833115 -1.110938,-1.750393 -1.572514,-2.679938 -0.175125,0.266171 -0.390689,0.597024 -0.429432,0.657841 -0.121457,0.173228 -0.990494,1.416643 -1.07642,1.519804 -0.172707,0.207328 -0.38344,0.379577 -0.573609,0.571024 -0.634193,0.638455 -1.257951,1.287409 -1.873269,1.944068 -1.292796,1.313159 -2.805911,2.376662 -4.073138,3.721219 -0.639681,0.639906 -0.99718,0.976792 -1.604553,1.678451 -0.643723,0.743646 -1.196043,1.55372 -1.799373,2.327505 -0.195662,0.250939 -0.409183,0.487108 -0.613915,0.730705 -1.090798,1.107506 -0.298633,0.265038 -1.731677,1.991611 -1.192284,1.436487 -2.383623,2.875095 -3.594613,4.294828 -0.839166,0.69341 -0.413893,0.303784 -1.246952,1.170988 -0.401021,0.417457 -0.81824,0.820139 -1.203545,1.252119 -1.307946,1.466334 -2.479019,3.046339 -3.627686,4.637961 -0.03423,0.04742 -0.06891,0.09176 -0.10387,0.134874 0.12002,1.511075 -2.701727,2.192022 -2.141987,0.352435 0.05433,-0.178562 -0.707089,-0.765945 -0.669211,-1.101225 -0.11657,-0.454257 -0.367657,-0.811281 -0.564822,-1.233 -0.263837,-0.564354 -0.433358,-1.162712 -0.535369,-1.776119 -0.264331,-0.92411 -0.765852,-1.769692 -0.942059,-2.722832 -0.575736,-1.452661 -0.93263,-2.97574 -1.364776,-4.474144 -0.140658,-0.519353 -0.24097,-1.095441 -0.453719,-1.593186 -0.08699,-0.203533 -0.202837,-0.393822 -0.295589,-0.594797 -0.750925,-1.626973 -0.126672,-0.366151 -0.575676,-1.258837 -0.0035,0.0019 -0.0069,0.0038 -0.01035,0.0057 -0.849127,0.5471 -0.118919,0.037 -1.147733,0.944128 -1.000879,0.882468 -2.112635,1.65888 -3.358452,2.152838 -0.804979,0.41134 -1.624441,0.795293 -2.417939,1.228349 -1.818236,0.99237 -3.496076,2.214436 -5.174363,3.420981 -1.310084,0.909656 -1.798541,1.275265 -3.26285,2.154391 -2.163538,1.298898 -4.50574,2.27449 -6.609933,3.67471 -1.110855,0.74761 -1.658063,1.135068 -2.843754,1.84485 -0.137159,0.0821 -2.4743177,1.377876 -2.5280101,1.406115 -0.483213,0.25436 -0.9835695,0.475694 -1.465027,0.73329 -0.3121433,0.166973 -0.6096836,0.35964 -0.9141561,0.539501 -0.7755043,0.436415 -1.5454362,0.904706 -2.2339723,1.470195 -0.9170405,0.753139 -1.6194404,1.716254 -2.4194904,2.583304 -0.4565664,0.494797 -0.91766727,0.687504 -1.29242756,0.669211 z M 161.18086,25.092525 c -0.15814,0.01961 -0.21338,0.195467 -0.0873,0.649056 0.11392,0.410069 0.14328,0.370258 0.4873,0.285771 -0.10228,-0.30953 -0.0877,-0.587519 0.008,-0.807703 -0.16143,-0.08116 -0.30743,-0.139056 -0.40721,-0.127124 z m 52.58955,12.034409 c -0.41883,0.473755 -0.52445,0.785066 0.44494,0.597895 0.0691,-0.01333 0.0145,-0.0016 0.0667,-0.01188 -0.22722,-0.184682 -0.39614,-0.383649 -0.5116,-0.58601 z m -65.27508,18.042824 c -0.0179,0.07905 -0.0358,0.158133 -0.0537,0.237196 0.0213,-0.02334 0.0429,-0.04659 0.0656,-0.06976 0.0127,-0.04371 0.0265,-0.109566 0.0388,-0.149862 -0.0175,-0.0064 -0.0358,-0.01389 -0.0506,-0.01757 z" />
    </clipPath>
  </defs>
  <g
     inkscape:label="Layer 1"
     inkscape:groupmode="layer"
     id="layer1">
    <rect
       style="fill:#180000;stroke:#000000;stroke-width:0;stroke-linecap:round;stroke-linejoin:round;paint-order:fill markers stroke"
       id="rect186"
       width="297"
       height="297"
       x="5e-07"
       y="5e-07" />
    <path
       style="fill:#4f3000;fill-opacity:1;stroke:#000000;stroke-width:0;stroke-linecap:round;stroke-linejoin:round;paint-order:fill markers stroke"
       d="M 0,148 V 5e-7 H 148 296 V 148 296 H 148 0 Z"
       id="path415" />
    <ellipse
       style="fill:#472500;fill-opacity:1;stroke:#000000;stroke-width:0;stroke-linecap:round;stroke-linejoin:round;paint-order:fill markers stroke"
       id="path10948"
       ry="52.763882"
       rx="33.695747"
       cy="147.84335"
       cx="62.428551" />
    <ellipse
       style="fill:#472500;fill-opacity:1;stroke:#000000;stroke-width:0;stroke-linecap:round;stroke-linejoin:round;paint-order:fill markers stroke"
       id="path10948-4"
       ry="36.307819"
       rx="22.986246"
       cy="84.892395"
       cx="175.27014" />
    <ellipse
       style="fill:#472500;fill-opacity:1;stroke:#000000;stroke-width:0;stroke-linecap:round;stroke-linejoin:round;paint-order:fill markers stroke"
       id="path10948-9"
       ry="57.988029"
       rx="39.964725"
       cy="206.35381"
       cx="195.90552" />
    <ellipse
       style="fill:#472500;fill-opacity:1;stroke:#000000;stroke-width:0;stroke-linecap:round;stroke-linejoin:round;paint-order:fill markers stroke"
       id="path10948-3"
       ry="14.366401"
       rx="14.366404"
       cy="158.55286"
       cx="126.42436" />
    <ellipse
       style="fill:#472500;fill-opacity:1;stroke:#000000;stroke-width:0;stroke-linecap:round;stroke-linejoin:round;paint-order:fill markers stroke"
       id="path10948-3-1"
       ry="14.366401"
       rx="14.366404"
       cy="74.182892"
       cx="113.36399" />
    <ellipse
       style="fill:#472500;fill-opacity:1;stroke:#000000;stroke-width:0;stroke-linecap:round;stroke-linejoin:round;paint-order:fill markers stroke"
       id="path10948-3-0"
       ry="14.366401"
       rx="14.366404"
       cy="126.94678"
       cx="203.21931" />
    <ellipse
       style="fill:#472500;fill-opacity:1;stroke:#000000;stroke-width:0;stroke-linecap:round;stroke-linejoin:round;paint-order:fill markers stroke"
       id="path10948-3-6"
       ry="14.366401"
       rx="14.366404"
       cy="220.98143"
       cx="140.00716" />
    <ellipse
       style="fill:#472500;fill-opacity:1;stroke:#000000;stroke-width:0;stroke-linecap:round;stroke-linejoin:round;paint-order:fill markers stroke"
       id="path10948-3-8"
       ry="14.366401"
       rx="14.366404"
       cy="48.062149"
       cx="53.286297" />
    <ellipse
       style="fill:#472500;fill-opacity:1;stroke:#000000;stroke-width:0;stroke-linecap:round;stroke-linejoin:round;paint-order:fill markers stroke"
       id="path10948-3-3"
       ry="14.366401"
       rx="14.366404"
       cy="251.28148"
       cx="57.465618" />
    <ellipse
       style="fill:#472500;fill-opacity:1;stroke:#000000;stroke-width:0;stroke-linecap:round;stroke-linejoin:round;paint-order:fill markers stroke"
       id="path10948-3-19"
       ry="14.366401"
       rx="14.366404"
       cy="64.779427"
       cx="242.40042" />
    <ellipse
       style="fill:#472500;fill-opacity:1;stroke:#000000;stroke-width:0;stroke-linecap:round;stroke-linejoin:round;paint-order:fill markers stroke"
       id="path10948-3-31"
       ry="14.366401"
       rx="14.366404"
       cy="225.68315"
       cx="269.56598" />
    <path
       style="fill:#472500;fill-opacity:1;stroke:#000000;stroke-width:0;stroke-linecap:round;stroke-linejoin:round;paint-order:fill markers stroke"
       id="path15784"
       d="m 219.48931,102.507 c 5.13471,0.35367 9.98982,2.23093 14.72872,4.10496 4.45868,2.00113 8.52496,4.73593 12.10048,8.05297 2.81897,3.12939 3.94045,7.13537 4.71948,11.172 0.52955,3.11841 0.62158,6.28397 0.64164,9.43958 -0.009,2.4327 -0.0926,4.85416 0.19558,7.27333 0.43172,2.70228 1.05228,5.37436 2.00162,7.94236 0.88803,2.36858 1.69271,4.7655 2.49866,7.16285 0.86998,2.66699 1.60423,5.37388 2.36881,8.07199 0.87606,3.09249 1.08804,6.24869 0.72829,9.42919 -0.55503,3.05708 -2.36191,5.67475 -4.01011,8.24661 -1.32278,2.11189 -2.28018,4.42288 -3.36962,6.65794 -0.81803,1.75266 -1.60998,3.50596 -2.66522,5.13216 -1.00662,1.31703 -1.73787,2.80201 -2.44333,4.29262 -0.64643,1.82289 -1.06911,3.7216 -1.36957,5.63029 -0.25311,1.95938 -0.24072,3.94003 -0.2605,5.91199 0.0806,1.22477 0.0303,0.62896 0.14762,1.7877 0,0 3.47617,-1.81614 3.47617,-1.81614 v 0 c -0.11736,-1.13188 -0.0689,-0.55133 -0.14185,-1.74193 0.0139,-1.95696 0.0255,-3.92207 0.29545,-5.8641 0.30333,-1.87921 0.71805,-3.75834 1.42149,-5.53139 0.70473,-1.4826 1.49468,-2.91977 2.46378,-4.2496 1.01828,-1.64926 1.7948,-3.41339 2.62285,-5.16222 1.06592,-2.2284 2.03475,-4.51685 3.36388,-6.60617 1.64766,-2.62112 3.43174,-5.28522 3.92313,-8.40273 0.30919,-3.22748 0.0927,-6.42873 -0.78475,-9.56477 -0.7592,-2.70534 -1.50414,-5.41553 -2.38248,-8.08541 -0.79807,-2.40626 -1.5733,-4.81984 -2.48085,-7.18793 -0.95126,-2.53304 -1.58406,-5.17661 -1.96418,-7.85529 -0.26301,-2.40673 -0.16345,-4.81935 -0.1794,-7.23708 -0.0538,-3.16761 -0.16708,-6.34459 -0.73555,-9.46961 -0.82113,-4.10931 -1.97835,-8.18153 -4.83478,-11.38274 -3.62262,-3.34824 -7.76572,-6.06509 -12.25679,-8.11878 -4.73717,-1.86224 -9.54233,-3.72638 -14.62948,-4.34974 0,0 -3.18919,2.31709 -3.18919,2.31709 z" />
    <path
       style="fill:none;fill-opacity:1;stroke:#472500;stroke-width:4.2;stroke-linecap:round;stroke-linejoin:round;paint-order:fill markers stroke;stroke-dasharray:none;stroke-opacity:1"
       d="m 216.8021,114.40882 c 8.38831,16.73462 15.56596,18.59896 -3.6569,28.21039"
       id="path15855" />
    <path
       style="fill:none;fill-opacity:1;stroke:#472500;stroke-width:4.2;stroke-linecap:round;stroke-linejoin:round;stroke-dasharray:none;stroke-opacity:1;paint-order:fill markers stroke"
       d="m 196.95034,54.331128 c 6.38846,16.403868 14.00895,33.627042 6.79139,48.062152"
       id="path16741" />
    <path
       style="fill:none;fill-opacity:1;stroke:#472500;stroke-width:4.2;stroke-linecap:round;stroke-linejoin:round;stroke-dasharray:none;stroke-opacity:1;paint-order:fill markers stroke"
       d="m 152.54509,114.93124 c 5.4375,6.88268 9.9366,9.40346 17.7621,9.40346"
       id="path16743" />
    <path
       style="fill:none;fill-opacity:1;stroke:#472500;stroke-width:4.2;stroke-linecap:round;stroke-linejoin:round;stroke-dasharray:none;stroke-opacity:1;paint-order:fill markers stroke"
       d="m 102.39328,22.986247 c 14.18755,3.639533 25.25062,11.860814 40.74835,13.582783 20.52559,2.280621 46.57764,-16.029394 58.51045,7.83622"
       id="path16745" />
    <path
       style="fill:none;fill-opacity:1;stroke:#472500;stroke-width:4.2;stroke-linecap:round;stroke-linejoin:round;stroke-dasharray:none;stroke-opacity:1;paint-order:fill markers stroke"
       d="m 27.687979,30.822468 c 5.721448,18.898891 7.80856,33.53349 28.210396,37.613857"
       id="path16747" />
    <path
       style="fill:none;fill-opacity:1;stroke:#472500;stroke-width:4.2;stroke-linecap:round;stroke-linejoin:round;stroke-dasharray:none;stroke-opacity:1;paint-order:fill markers stroke"
       d="M 33.434541,100.30362 C 24.282644,113.03791 17.7621,131.41449 17.7621,147.32095"
       id="path16749" />
    <path
       style="fill:none;fill-opacity:1;stroke:#472500;stroke-width:4.2;stroke-linecap:round;stroke-linejoin:round;stroke-dasharray:none;stroke-opacity:1;paint-order:fill markers stroke"
       d="m 103.43811,175.00893 c -2.3327,13.82027 -7.498761,28.77904 -21.941417,32.38971"
       id="path16751" />
    <path
       style="fill:none;fill-opacity:1;stroke:#472500;stroke-width:4.2;stroke-linecap:round;stroke-linejoin:round;stroke-dasharray:none;stroke-opacity:1;paint-order:fill markers stroke"
       d="m 126.94677,203.74173 c -10.10269,4.99369 -14.27521,21.07898 -9.40346,30.82247"
       id="path16753" />
    <path
       style="fill:none;fill-opacity:1;stroke:#472500;stroke-width:4.2;stroke-linecap:round;stroke-linejoin:round;stroke-dasharray:none;stroke-opacity:1;paint-order:fill markers stroke"
       d="m 162.99339,264.34184 c 15.46297,9.62107 45.20383,26.61322 56.42079,4.17931"
       id="path16755" />
    <path
       style="fill:none;fill-opacity:1;stroke:#472500;stroke-width:4.2;stroke-linecap:round;stroke-linejoin:round;stroke-dasharray:none;stroke-opacity:1;paint-order:fill markers stroke"
       d="m 76.794962,243.96767 c 5.364131,7.57929 4.355775,14.39233 -0.522414,20.89659"
       id="path16757" />
    <path
       style="fill:none;fill-opacity:1;stroke:#472500;stroke-width:4.2;stroke-linecap:round;stroke-linejoin:round;stroke-dasharray:none;stroke-opacity:1;paint-order:fill markers stroke"
       d="m 21.419003,193.81586 c -1.0215,5.59254 -0.948167,11.16403 1.567244,16.19485"
       id="path16759" />
    <path
       style="fill:none;fill-opacity:1;stroke:#472500;stroke-width:4.2;stroke-linecap:round;stroke-linejoin:round;stroke-dasharray:none;stroke-opacity:1;paint-order:fill markers stroke"
       d="m 32.389712,201.12966 c 4.989822,4.58622 -5.862513,37.90437 -13.582783,22.46383"
       id="path16761" />
    <path
       style="fill:none;fill-opacity:1;stroke:#472500;stroke-width:4.2;stroke-linecap:round;stroke-linejoin:round;stroke-dasharray:none;stroke-opacity:1;paint-order:fill markers stroke"
       d="m 8.8810501,265.90908 c 1.6834809,20.60964 -3.3727199,22.46384 20.3741719,22.46384"
       id="path16765" />
    <path
       style="fill:none;fill-opacity:1;stroke:#472500;stroke-width:4.2;stroke-linecap:round;stroke-linejoin:round;stroke-dasharray:none;stroke-opacity:1;paint-order:fill markers stroke"
       d="m 279.49186,35.524199 c 6.15614,13.316254 17.43559,31.083678 7.83622,43.882836"
       id="path16767" />
    <path
       style="fill:none;fill-opacity:1;stroke:#472500;stroke-width:4.2;stroke-linecap:round;stroke-linejoin:round;stroke-dasharray:none;stroke-opacity:1;paint-order:fill markers stroke"
       d="m 260.68494,57.988033 c 7.52884,14.033486 5.11524,18.311743 -7.31381,21.419002"
       id="path16769" />
    <path
       style="fill:none;fill-opacity:1;stroke:#472500;stroke-width:4.2;stroke-linecap:round;stroke-linejoin:round;stroke-dasharray:none;stroke-opacity:1;paint-order:fill markers stroke"
       d="m 262.7746,126.94677 c -0.29649,9.93956 5.59529,18.72431 7.83623,27.68798"
       id="path16771" />
    <path
       style="fill:none;fill-opacity:1;stroke:#472500;stroke-width:4.2;stroke-linecap:round;stroke-linejoin:round;stroke-dasharray:none;stroke-opacity:1;paint-order:fill markers stroke"
       d="m 95.079477,105.00536 c 8.353773,12.84999 12.015533,28.16626 12.015533,44.40525"
       id="path16773" />
    <path
       style="fill:#457400;fill-opacity:1;stroke:none;stroke-width:5.69768;stroke-linecap:round;stroke-linejoin:round;stroke-dasharray:none;stroke-opacity:1;paint-order:fill markers stroke"
       d="M 0.62245554,141.94046 C 0.14346771,140.9226 0.12729087,138.96042 0.05511301,73.124336 0.01425009,35.851724 0.0498634,4.6154736 0.13425377,3.7104474 0.21864413,2.805421 0.51413129,1.6294493 0.79089191,1.097177 1.2880963,0.14094224 3.0409607,0.1294093 147.87993,0.1294093 h 146.58584 l 0.68194,1.0316594 0.68196,1.0316596 V 36.68874 c 0,36.379978 0.0225,35.587842 -1.15165,40.345482 -0.2027,0.821313 -0.6685,3.438729 -1.03508,5.816475 -0.44767,2.9036 -0.90374,4.783266 -1.38896,5.724307 -0.68376,1.326182 -3.9362,13.419316 -4.32612,16.085216 -0.10012,0.68443 -0.55972,2.47639 -1.0214,3.98213 -1.07984,3.52189 -2.36471,9.10886 -2.72978,11.87001 -0.28377,2.14622 -0.29041,2.1562 -0.82675,1.24441 -0.29739,-0.50553 -1.36075,-3.04711 -2.36304,-5.64793 -1.0023,-2.60083 -2.6252,-6.40874 -3.60648,-8.46202 -0.98126,-2.05329 -3.29282,-7.42916 -5.13681,-11.946383 -1.84399,-4.517222 -3.98936,-9.6691 -4.7675,-11.448609 -0.77814,-1.779514 -2.12421,-5.209913 -2.99128,-7.623106 -0.86707,-2.413193 -2.52579,-6.478264 -3.68604,-9.033477 -3.38706,-7.459195 -8.9713,-21.16471 -9.3051,-22.837679 -0.0905,-0.453623 -0.27576,-0.824768 -0.41165,-0.824768 -0.40048,0 -1.70757,2.304912 -2.3805,4.197742 -0.34314,0.965209 -0.94818,2.013897 -1.34453,2.330416 -0.39635,0.316521 -1.19066,1.609109 -1.76514,2.872412 -0.57448,1.263308 -1.55393,3.080909 -2.17656,4.039104 -0.62263,0.9582 -1.88995,3.611744 -2.81627,5.896767 -0.92632,2.285023 -2.10741,4.761446 -2.62464,5.50315 -2.14957,3.082456 -4.73591,10.071857 -5.85436,15.820981 -0.29977,1.540913 -0.91076,3.569174 -1.35776,4.507249 l -0.81273,1.705582 -2.88236,-4.397158 c -5.15041,-7.857179 -8.09371,-11.698359 -10.52905,-13.741021 -1.30115,-1.091352 -2.47638,-2.179385 -2.61161,-2.417844 -0.39816,-0.702084 -1.48731,-0.48027 -2.65725,0.541175 -1.05118,0.917762 -5.83754,7.493288 -6.14038,8.435693 -0.26644,0.829099 -4.82422,6.147652 -6.18771,7.220527 -3.41622,2.6881 -5.82808,6.198156 -10.79934,15.716657 l -3.51334,6.727 -1.1454,-3.68773 c -0.62997,-2.02825 -2.28647,-6.811818 -3.68113,-10.630141 -1.39466,-3.818328 -3.97713,-11.118628 -5.73883,-16.222898 -2.93717,-8.510021 -7.49872,-19.728634 -10.39977,-25.577045 -1.0254,-2.067181 -1.29328,-2.349837 -2.16473,-2.284167 -1.12047,0.08444 -0.91011,-0.497094 -3.12007,8.625407 -0.72955,3.011481 -1.53163,6.820864 -1.78241,8.465293 -0.47396,3.107807 -1.43315,7.043054 -2.53473,10.399085 -2.18531,6.657751 -3.26861,12.583177 -3.55835,19.463587 -0.22678,5.385259 -0.7677,8.927309 -1.54229,10.099109 l -0.63179,0.95578 -5.77168,-5.60124 c -3.17443,-3.080676 -6.4705,-6.286676 -7.3246,-7.124441 -0.8541,-0.83777 -2.39099,-2.301291 -3.41531,-3.252281 -1.02432,-0.950984 -3.06252,-3.170396 -4.52933,-4.932028 -1.46681,-1.761633 -3.13279,-3.49079 -3.7022,-3.84257 -0.5694,-0.35178 -1.2863,-0.953498 -1.59311,-1.337148 -0.48324,-0.604273 -0.67359,-0.591175 -1.4235,0.09792 -2.98142,2.739667 -7.40551,8.401675 -9.99448,12.791079 -0.81551,1.382639 -2.64743,4.212943 -4.07093,6.289569 -1.42351,2.07662 -3.17053,4.80817 -3.88228,6.0701 -0.71175,1.26193 -2.2244,3.73595 -3.361427,5.49783 -1.137033,1.76188 -2.840373,4.60409 -3.785208,6.31602 -1.301263,2.35776 -1.781376,2.96134 -1.979724,2.48883 -0.299566,-0.71362 -2.649889,-11.01286 -2.649889,-11.61195 0,-0.41006 -0.608878,-3.03152 -1.76521,-7.59994 -0.37025,-1.46279 -0.968941,-3.084305 -1.330423,-3.603381 -0.361482,-0.519075 -0.797909,-1.170208 -0.969835,-1.446963 -0.171932,-0.276744 -0.372759,-0.503179 -0.446286,-0.503179 -0.287399,0 -0.923439,3.013643 -0.923439,4.375363 0,0.79102 -0.584284,3.64533 -1.298413,6.34292 -0.714129,2.6976 -1.544664,6.20358 -1.845633,7.79109 l -0.547222,2.88637 -0.863769,-2.33655 c -1.026311,-2.77622 -1.278665,-3.75932 -3.870198,-15.07707 -3.388005,-14.796101 -4.825698,-20.599748 -5.473941,-22.097093 -0.885264,-2.044824 -1.888757,-6.022077 -1.888757,-7.485904 0,-1.511547 -0.824426,-2.528972 -1.488207,-1.836591 -0.631746,0.658954 -1.645629,2.854251 -2.671604,5.784651 -0.479255,1.36886 -2.648656,5.848753 -4.820896,9.95532 -2.172234,4.106568 -4.505153,8.83446 -5.184262,10.506433 -2.506935,6.172104 -5.930638,13.954734 -7.202712,16.372914 -0.720082,1.36886 -2.02973,4.23796 -2.910327,6.37578 -1.504867,3.65336 -1.615127,3.81788 -1.834737,2.73771 -0.459615,-2.26064 -2.082694,-12.17221 -2.633559,-16.08221 -0.670335,-4.75801 -1.854147,-9.466615 -2.563643,-10.196884 -0.690412,-0.710623 -1.835613,0.25007 -3.501157,2.937097 -0.711751,1.148272 -2.436241,3.222747 -3.832201,4.609947 -1.395963,1.38721 -4.082254,4.60371 -5.969538,7.1478 -1.887285,2.54409 -4.763294,6.02813 -6.391132,7.74231 -1.627838,1.71418 -3.774984,4.16126 -4.771435,5.43796 -0.996452,1.2767 -3.034649,3.61801 -4.5293263,5.20292 -3.5816619,3.79787 -4.5234777,5.08334 -6.147804,8.391 -1.3525651,2.75427 -2.0123585,4.98305 -1.7327403,5.85317 0.2850065,0.8869 -0.3283526,0.44127 -0.81446986,-0.59173 z"
       id="path37560" />
    <path
       style="fill:none;fill-opacity:1;stroke:#458700;stroke-width:10.23873932;stroke-linecap:round;stroke-linejoin:round;stroke-dasharray:none;stroke-opacity:1;paint-order:fill markers stroke"
       d="M 2.9301319,536.9761 C 1.6447024,534.45209 1.4345186,502.42145 1.1968351,272.83283 0.97956777,62.965142 1.1720242,10.822218 2.1750472,7.802347 3.1118682,4.9817942 4.1566969,3.8160213 6.3583784,3.1347741 11.589094,1.5162792 235.4086,0.66608387 679.36828,0.57829491 l 433.34792,-0.0856904 2.6901,4.25822489 2.6901,4.2582249 -0.064,99.1859557 c -0.081,125.71643 -0.9582,167.16352 -3.7965,179.39934 -1.1232,4.84215 -3.1491,15.32869 -4.502,23.30343 -1.3817,8.14561 -4.1312,19.5053 -6.2743,25.92261 -4.4585,13.35104 -11.6534,39.90195 -15.1568,55.93175 -1.3522,6.1872 -4.0154,16.75189 -5.9182,23.47709 -2.767,9.77971 -7.217,30.08076 -9.5418,43.53044 -0.483,2.79434 -2.9433,-2.22315 -11.512,-23.47709 -3.9042,-9.6843 -8.6209,-20.90928 -10.4814,-24.94441 -9.5393,-20.68862 -41.9202,-98.24594 -50.6431,-121.29829 -3.3592,-8.87728 -9.07636,-22.96353 -12.70485,-31.30279 -18.89442,-43.42321 -36.67972,-87.24456 -36.67972,-90.37441 0,-0.80413 -0.51305,-1.77914 -1.14012,-2.16669 -1.71161,-1.05784 -5.30897,4.02063 -8.7324,12.32771 -1.66291,4.03513 -4.35349,9.02343 -5.97907,11.08512 -4.14719,5.25983 -20.4242,36.40201 -27.2191,52.07727 -3.12797,7.21599 -7.28064,15.74304 -9.22817,18.94901 -8.20986,13.51489 -15.12843,31.94172 -21.01204,55.9632 -2.06231,8.41994 -4.80984,17.6454 -6.10563,20.50102 l -2.35598,5.19204 -11.57566,-17.56638 c -6.3666,-9.66152 -15.31771,-22.62864 -19.89134,-28.81583 -9.20082,-12.44683 -28.85922,-32.25306 -32.02498,-32.26581 -1.07604,-0.004 -3.34478,0.83869 -5.04167,1.87338 -3.13788,1.91335 -19.00367,22.34529 -23.59126,30.38077 -4.43533,7.7688 -12.89085,17.77967 -25.76582,30.50535 -16.99181,16.79475 -21.26863,23.37489 -48.06165,73.94565 l -5.32032,10.04186 -2.70939,-9.06365 c -2.32308,-7.77131 -13.39155,-39.3739 -39.83353,-113.73235 -10.92351,-30.7184 -29.66836,-75.93682 -37.27561,-89.92041 -3.61781,-6.65022 -5.25183,-7.9561 -8.8312,-7.05773 -2.15901,0.54187 -2.85976,1.67097 -4.49097,7.23608 -2.68719,9.1678 -9.34945,37.69539 -11.82015,50.61357 -4.06551,21.25675 -6.18064,30.30705 -9.9202,42.44691 -8.09477,26.2783 -11.84257,44.46012 -13.5467,65.71954 -0.57895,7.22252 -1.49461,18.69402 -2.0348,25.49223 -1.07633,13.54542 -2.61365,20.80094 -5.26462,24.84683 l -1.72733,2.63626 -17.26672,-16.99795 c -9.4967,-9.34887 -25.01502,-24.53378 -34.48518,-33.74424 -9.47016,-9.21046 -21.47605,-21.60896 -26.67976,-27.5522 -5.20371,-5.94326 -11.76175,-12.70259 -14.57342,-15.02072 -2.81168,-2.31814 -5.46416,-4.77136 -5.8944,-5.4516 -1.63206,-2.58038 -4.56993,-1.00441 -11.26333,6.042 -9.88778,10.40926 -17.88742,20.70665 -27.40253,35.27342 -4.56867,6.99422 -12.92704,19.75989 -18.57418,28.36815 -10.08201,15.36863 -20.72573,32.55723 -39.33255,63.51836 -5.15172,8.57227 -9.81085,15.73398 -10.35362,15.91491 -1.06681,0.3556 -5.71866,-18.08039 -10.2933,-40.79389 -3.96531,-19.68817 -8.47846,-36.75877 -11.25001,-42.55222 -2.82165,-5.89816 -5.83615,-9.65226 -7.11566,-8.86148 -1.01114,0.62493 -2.18725,6.21224 -3.92439,18.6436 -0.60145,4.30413 -3.47642,17.73009 -6.38882,29.83546 -2.9124,12.10538 -5.66302,23.95558 -6.11248,26.33378 l -0.81721,4.324 -3.57463,-10.68238 c -1.96605,-5.87531 -6.08071,-21.46717 -9.14368,-34.64858 -14.50664,-62.42885 -20.28978,-86.3647 -23.04373,-95.37567 -1.64428,-5.38017 -4.06592,-13.27137 -5.38141,-17.536 -1.31549,-4.26463 -2.84209,-10.86756 -3.39246,-14.67318 -1.27027,-8.78359 -2.33959,-11.32126 -4.77055,-11.32126 -2.50587,0 -5.50188,5.25107 -10.88334,19.07514 -2.30385,5.91818 -11.3306,24.84658 -20.05946,42.06311 -8.72886,17.21654 -20.11769,41.35475 -25.30851,53.64049 -5.19082,12.28572 -13.39845,30.77393 -18.23916,41.0849 -4.84073,10.31097 -11.0461,23.94539 -13.78972,30.29871 -2.74363,6.35334 -5.31547,11.19549 -5.7152,10.76034 -0.70004,-0.76206 -5.05834,-26.25217 -10.25419,-59.973 -2.66893,-17.32122 -6.41812,-33.55175 -8.82587,-38.20782 -0.8183,-1.5824 -2.26756,-2.87709 -3.22058,-2.87709 -2.16321,0 -7.26214,5.35316 -13.22464,13.88401 -2.51692,3.60108 -8.16781,10.42411 -12.55754,15.16229 -4.38973,4.73817 -11.29395,12.79672 -15.34271,17.90788 -18.350013,23.16512 -25.91198,32.36921 -32.951175,40.1067 -4.160423,4.57314 -11.845954,13.37705 -17.078955,19.56424 -5.233002,6.18719 -14.425157,16.6918 -20.427011,23.34358 -6.001854,6.65178 -12.652104,15.0224 -14.778334,18.60138 -5.522645,9.29599 -10.6227466,21.53251 -11.4919589,27.57231 l -0.7471004,5.19131 z"
       id="path37631"
       transform="scale(0.26458333)" />
    <path
       style="fill:none;fill-opacity:1;stroke:#458700;stroke-width:2.70899;stroke-linecap:round;stroke-linejoin:round;stroke-dasharray:none;stroke-opacity:1;paint-order:fill markers stroke"
       d="M 61.598828,69.622206 47.881442,98.868708"
       id="path42118" />
    <path
       style="fill:none;fill-opacity:1;stroke:#458700;stroke-width:2.70899;stroke-linecap:round;stroke-linejoin:round;stroke-dasharray:none;stroke-opacity:1;paint-order:fill markers stroke"
       d="m 77.645582,83.857228 2.588186,14.235023"
       id="path42197" />
    <path
       style="fill:none;fill-opacity:1;stroke:#458700;stroke-width:2.70899;stroke-linecap:round;stroke-linejoin:round;stroke-dasharray:none;stroke-opacity:1;paint-order:fill markers stroke"
       d="m 93.174697,98.868708 2.07055,9.317472"
       id="path42199" />
    <path
       style="fill:none;fill-opacity:1;stroke:#458700;stroke-width:2.70899;stroke-linecap:round;stroke-linejoin:round;stroke-dasharray:none;stroke-opacity:1;paint-order:fill markers stroke"
       d="M 104.82154,95.245247 117.76247,79.198493"
       id="path42201" />
    <path
       style="fill:none;fill-opacity:1;stroke:#458700;stroke-width:2.70899;stroke-linecap:round;stroke-linejoin:round;stroke-dasharray:none;stroke-opacity:1;paint-order:fill markers stroke"
       d="m 173.16277,57.555534 11.24648,29.770101"
       id="path42205" />
    <path
       style="fill:none;fill-opacity:1;stroke:#458700;stroke-width:2.70899;stroke-linecap:round;stroke-linejoin:round;stroke-dasharray:none;stroke-opacity:1;paint-order:fill markers stroke"
       d="M 239.81472,48.459112 230.7183,70.952079"
       id="path42207" />
    <path
       style="fill:none;fill-opacity:1;stroke:#458700;stroke-width:2.70899;stroke-linecap:round;stroke-linejoin:round;stroke-dasharray:none;stroke-opacity:1;paint-order:fill markers stroke"
       d="m 204.75215,71.779026 -4.30012,6.615578"
       id="path42209" />
    <path
       style="fill:none;fill-opacity:1;stroke:#458700;stroke-width:2.70899;stroke-linecap:round;stroke-linejoin:round;stroke-dasharray:none;stroke-opacity:1;paint-order:fill markers stroke"
       d="m 274.45906,82.880278 6.73521,18.521782"
       id="path42211" />
    <path
       style="fill:none;fill-opacity:1;stroke:#458700;stroke-width:2.70899;stroke-linecap:round;stroke-linejoin:round;stroke-dasharray:none;stroke-opacity:1;paint-order:fill markers stroke"
       d="m 29.185833,97.099018 -6.922282,7.857722"
       id="path42213" />
    <path
       style="fill:none;fill-opacity:1;stroke:#458700;stroke-width:2.70899;stroke-linecap:round;stroke-linejoin:round;stroke-dasharray:none;stroke-opacity:1;paint-order:fill markers stroke"
       d="M 16.83798,112.44029 8.6060787,122.54308"
       id="path42215" />
    <path
       style="fill:none;fill-opacity:1;stroke:#458700;stroke-width:2.70899;stroke-linecap:round;stroke-linejoin:round;stroke-dasharray:none;stroke-opacity:1;paint-order:fill markers stroke"
       d="M 25.444059,15.341271 113.37573,14.592916"
       id="path42969" />
    <path
       style="fill:none;fill-opacity:1;stroke:#458700;stroke-width:2.70899;stroke-linecap:round;stroke-linejoin:round;stroke-dasharray:none;stroke-opacity:1;paint-order:fill markers stroke"
       d="m 224.5064,11.973675 40.41115,0.374177"
       id="path42971" />
    <path
       style="fill:none;fill-opacity:1;stroke:#458700;stroke-width:2.70899;stroke-linecap:round;stroke-linejoin:round;stroke-dasharray:none;stroke-opacity:1;paint-order:fill markers stroke"
       d="M 92.421801,32.553428 H 142.18739"
       id="path42973" />
    <path
       style="fill:none;fill-opacity:1;stroke:#458700;stroke-width:2.70899;stroke-linecap:round;stroke-linejoin:round;stroke-dasharray:none;stroke-opacity:1;paint-order:fill markers stroke"
       d="M 44.901281,48.268876 129.46536,47.8947"
       id="path42975" />
    <path
       style="fill:none;fill-opacity:1;stroke:#458700;stroke-width:2.70899;stroke-linecap:round;stroke-linejoin:round;stroke-dasharray:none;stroke-opacity:1;paint-order:fill markers stroke"
       d="M 28.811654,31.805073 76.706353,31.05672"
       id="path42977" />
    <path
       style="fill:none;fill-opacity:1;stroke:#458700;stroke-width:2.70899;stroke-linecap:round;stroke-linejoin:round;stroke-dasharray:none;stroke-opacity:1;paint-order:fill markers stroke"
       d="m 196.81728,33.67596 79.32559,-0.374177"
       id="path42979" />
    <path
       style="fill:none;fill-opacity:1;stroke:#458700;stroke-width:2.70899;stroke-linecap:round;stroke-linejoin:round;stroke-dasharray:none;stroke-opacity:1;paint-order:fill markers stroke"
       d="m 178.10841,22.824817 25.44406,-1.122532"
       id="path42983" />
    <path
       style="fill:none;fill-opacity:1;stroke:#458700;stroke-width:2.70899;stroke-linecap:round;stroke-linejoin:round;stroke-dasharray:none;stroke-opacity:1;paint-order:fill markers stroke"
       d="m 151.16764,41.533683 31.4309,-1.122532"
       id="path42985" />
  </g>
</svg>
